<?xml version="1.0" encoding="utf-8"?>
<!-- Generator: Adobe Illustrator 19.2.1, SVG Export Plug-In . SVG Version: 6.00 Build 0)  -->
<svg version="1.1" id="Warstwa_1" xmlns="http://www.w3.org/2000/svg" xmlns:xlink="http://www.w3.org/1999/xlink" x="0px" y="0px"
	 viewBox="0 0 300 300" style="enable-background:new 0 0 300 300;" xml:space="preserve">
<path fill="#fff" d="M149.3,0C97.8,0,55.9,37.8,55.9,84.4v131.3c0,46.6,41.8,84.4,93.4,84.4c51.5,0,93.3-37.8,93.3-84.4V84.4
	C242.6,37.8,200.9,0,149.3,0L149.3,0z M221.9,215.6c0,36.3-32.5,65.7-72.6,65.7c-40.1,0-72.6-29.4-72.6-65.7V84.4
	c0-36.3,32.5-65.7,72.6-65.7c40,0,72.6,29.4,72.6,65.7V215.6z M149.3,46.9"/>
<path fill="#fff" d="M149.3,58.5c-5.7,0-10.4,4.3-10.4,9.7v48.3c0,5.3,4.7,9.6,10.4,9.6c5.7,0,10.3-4.3,10.3-9.6V68.2
	C159.7,62.8,155.1,58.5,149.3,58.5L149.3,58.5z"/>
</svg>
